<?xml version="1.0" encoding="UTF-8" standalone="no"?>
<svg width="48px" height="31px" viewBox="0 0 48 31" version="1.1" xmlns="http://www.w3.org/2000/svg" xmlns:xlink="http://www.w3.org/1999/xlink">
    <!-- Generator: Sketch 39.1 (31720) - http://www.bohemiancoding.com/sketch -->
    <title>closet</title>
    <desc>Created with Sketch.</desc>
    <defs></defs>
    <g id="Page-1" stroke="none" stroke-width="1" fill="none" fill-rule="evenodd">
        <g id="品牌主页" transform="translate(-461.000000, -4188.000000)" stroke="#979797" stroke-width="1.6">
            <g id="底部菜单" transform="translate(0.000000, 4158.000000)">
                <g id="close" transform="translate(448.000000, 31.000000)">
                    <g id="closet" transform="translate(14.000000, 0.000000)">
                        <path d="M3.44896546,22.847602 C10.9037624,18.5110981 21.9489082,13 21.9489082,13 C21.9489082,13 36.8290436,20.2242364 41.8169342,22.847602 C46.8048248,25.4709676 44.9579498,29.0985243 44.9579498,29.0985243 L0.339395222,29.0985243 C0.339395222,29.0985243 -1.51587827,25.7356839 3.44896546,22.847602 Z" id="Triangle-1"></path>
                        <path d="M26,4.02777778 C26,1.80329754 24.209139,0 22,0 C19.790861,0 18,1.80329754 18,4.02777778 C18,6.25225802 19.790861,8.05555556 22,8.05555556 L22,12.8768921" id="Oval-111"></path>
                    </g>
                </g>
            </g>
        </g>
    </g>
</svg>