<?xml version="1.0" standalone="no"?><!DOCTYPE svg PUBLIC "-//W3C//DTD SVG 1.1//EN" "http://www.w3.org/Graphics/SVG/1.1/DTD/svg11.dtd"><svg t="1493863119272" class="icon" style="" viewBox="0 0 1356 1024" version="1.1" xmlns="http://www.w3.org/2000/svg" p-id="4625" xmlns:xlink="http://www.w3.org/1999/xlink" width="169.5" height="128"><defs><style type="text/css"></style></defs><path d="M223.379029 1.968239C233.074069-0.75619 243.248631 0.170675 253.197018 0.085669 552.0867 0.11451 850.974711 0.085669 1149.862876 0.11451 1163.802579-0.363343 1176.170589 9.640753 1180.299737 22.710667 1237.632819 194.109872 1294.626187 365.651766 1351.848611 537.108652 1354.743052 547.225076 1353.452029 557.819202 1353.564359 568.188973 1353.591682 703.110611 1353.506677 838.033914 1353.619004 972.928226 1353.452183 982.091981 1351.624105 992.264571 1344.42914 998.643179 1337.881739 1005.86683 1327.481302 1007.046891 1318.291441 1007.383727 904.230412 1007.29872 490.144946 1007.32756 76.085437 1007.353368 63.550603 1007.383727 48.514177 1008.621469 39.014801 998.785714 28.615885 989.455137 29.570073 974.165968 29.627604 961.463251 29.627604 826.596108 29.880951 691.729119 29.515275 556.861979 28.222734 543.259717 33.450275 530.502352 37.807115 517.939131 92.778258 352.918534 147.832889 187.896418 202.778379 22.846979 205.841161 13.295235 213.456448 4.498522 223.379029 1.968239L223.379029 1.968239ZM251.87427 57.753311C200.72595 211.196755 149.574442 364.667371 98.426121 518.139654 226.862133 518.166977 355.326988 518.194299 483.762998 518.139654 492.614662 518.335319 502.537243 519.403201 509.028485 526.176325 517.995357 533.481797 519.089197 545.989006 519.539727 556.751471 521.730292 607.702001 548.8237 656.601772 590.081316 686.362383 621.586209 709.519878 661.214452 721.295733 700.24826 719.159968 746.200916 717.163704 790.883954 695.579266 821.070505 660.902298 847.150676 631.505694 862.775615 592.947004 863.873855 553.63116 864.351708 544.302098 865.73062 533.79131 873.1214 527.215366 879.639965 519.711196 890.208741 518.362642 899.536736 518.138136 1027.977303 518.192782 1156.411799 518.138136 1284.818971 518.138136 1233.67065 364.694694 1182.52066 211.22256 1131.398144 57.751793 838.213855 57.697299 545.029566 57.697299 251.87427 57.753311L251.87427 57.753311ZM87.324694 575.722291C87.297371 700.416843 87.297371 825.106842 87.324694 949.801394 490.199441 949.83327 893.045498 949.83327 1295.921763 949.801394 1295.949086 825.10836 1295.949086 700.418361 1295.921763 575.722291 1170.574336 575.693451 1045.22843 575.693451 919.884041 575.722291 911.762059 644.460393 870.251095 708.113797 810.897309 743.635661 764.606298 772.079592 708.007448 782.811853 654.468195 773.962165 602.981521 765.838968 554.753295 739.166795 520.129605 700.272788 489.131406 665.820326 468.979769 621.753579 463.359229 575.722291 338.014991 575.694968 212.669084 575.694968 87.324694 575.722291L87.324694 575.722291Z" p-id="4626" fill="#8a8a8a"></path></svg>