<?xml version="1.0" encoding="UTF-8"?>
<svg width="210px" height="210px" viewBox="0 0 210 210" version="1.1" xmlns="http://www.w3.org/2000/svg" xmlns:xlink="http://www.w3.org/1999/xlink">
    <!-- Generator: Sketch 42 (36781) - http://www.bohemiancoding.com/sketch -->
    <title>Group 21</title>
    <desc>Created with Sketch.</desc>
    <defs></defs>
    <g id="Page-1" stroke="none" stroke-width="1" fill="none" fill-rule="evenodd">
        <g id="个人中心" transform="translate(-271.000000, -210.000000)">
            <g id="Group-7" transform="translate(266.000000, 205.000000)">
                <g id="Group-21" transform="translate(5.000000, 5.000000)">
                    <ellipse id="Oval-8-Copy" fill="#F0F0F2" cx="105" cy="105" rx="105" ry="105"></ellipse>
                    <g id="Group-10" transform="translate(0.827068, 30.000000)">
                        <path d="M0.0303386806,88.4813186 C6.64686773,140.104039 50.7507995,180 104.172932,180 C110.061835,180 115.837509,179.515208 121.462221,178.583357 L169.480625,131.616463 L112.059632,147.019231 C112.059632,147.019231 47.0411017,132.615385 47.0411017,131.365385 C47.0411017,130.115385 53.61524,102.923077 53.61524,102.923077 L69.6921631,85.5769231 L109.565311,78.75 L124.56732,64.0765056 L84.3582753,6 L0.0303386806,88.4813186 Z" id="Combined-Shape" fill="#E0E0E0"></path>
                        <path d="M106.172932,67.5 C127.922932,67.5 135.172932,50.5998268 135.172932,32.7694688 C135.172932,14.9391108 126.922932,0.484749664 106.172932,0.484749664 C85.4229323,0.484749664 77.1729323,14.9391108 77.1729323,32.7694688 C77.1729323,50.5998268 84.4229323,67.5 106.172932,67.5 Z" id="Oval" stroke="#C6C9CE" stroke-width="6" fill="#FBFDFC"></path>
                        <path d="M77.9239089,28.25 L93.4309953,28.25 C93.4309953,28.25 92.4239089,63.75 105.422932,63.75 C118.421956,63.75 99.9229323,68 99.9229323,68 C99.9229323,68 82.4219558,64 80.1729323,47.25 C77.9239089,30.5 76.9239089,28.25 77.9239089,28.25 Z" id="Path-25" fill="#EAEDF2" style="mix-blend-mode: multiply;"></path>
                        <path d="M106.172932,67.5 C127.922932,67.5 135.172932,50.5998268 135.172932,32.7694688 C135.172932,14.9391108 126.922932,0.484749664 106.172932,0.484749664 C85.4229323,0.484749664 77.1729323,14.9391108 77.1729323,32.7694688 C77.1729323,50.5998268 84.4229323,67.5 106.172932,67.5 Z" id="Oval" stroke="#C6C9CE" stroke-width="6"></path>
                        <path d="M71.1729323,28.5702155 C71.1729323,28.5702155 83.0479323,28.5702155 98.5479323,28.5702155 C114.047932,28.5702155 119.852733,16.1268496 119.852733,16.1268496 C119.852733,16.1268496 119.311695,29.1221739 142.172932,29.1221739" id="Path-23" stroke="#C6C9CE" stroke-width="6" stroke-linecap="round" stroke-linejoin="round"></path>
                        <path d="M45.1729323,129.764156 C45.1729323,129.764156 50.4388578,73.7692308 106.709741,73.7692308 C162.980625,73.7692308 167.172932,129.764156 167.172932,129.764156 L106.923909,147.269231 L45.1729323,129.764156 Z" id="Rectangle-26" stroke="#C6C9CE" stroke-width="6" fill="#FBFDFC"></path>
                        <path d="M106.40853,74.4615385 C97.2818312,74.4615385 90.0230579,77.1289054 90.0230579,90.1707102 L90.0230579,141.476789 L44.9413368,130.845328 L47.6821595,118.72609 C51.4262272,102.170753 66.907365,82.8816385 82.2595448,75.6429795 L84.7652153,74.4615385 L106.40853,74.4615385 Z" id="Path-26" fill="#E6EBEF"></path>
                        <path d="M45.1729323,129.764156 C45.1729323,129.764156 50.4388578,73.7692308 106.709741,73.7692308 C162.980625,73.7692308 167.172932,129.764156 167.172932,129.764156 L106.923909,147.269231 L45.1729323,129.764156 Z" id="Rectangle-26" stroke="#C6C9CE" stroke-width="6"></path>
                        <rect id="Rectangle-27" fill="#C6C9CE" transform="translate(73.113295, 120.881833) rotate(-7.000000) translate(-73.113295, -120.881833) " x="70.5748335" y="104.80491" width="5.07692308" height="32.1538462"></rect>
                        <rect id="Rectangle-27-Copy" fill="#C6C9CE" transform="translate(137.694108, 120.881833) scale(-1, 1) rotate(-7.000000) translate(-137.694108, -120.881833) " x="135.155647" y="104.80491" width="5.07692308" height="32.1538462"></rect>
                    </g>
                </g>
            </g>
        </g>
    </g>
</svg>