<?xml version="1.0" encoding="UTF-8"?>
<svg width="250px" height="250px" viewBox="0 0 250 250" version="1.1" xmlns="http://www.w3.org/2000/svg" xmlns:xlink="http://www.w3.org/1999/xlink">
    <!-- Generator: Sketch 42 (36781) - http://www.bohemiancoding.com/sketch -->
    <title>Group 5</title>
    <desc>Created with Sketch.</desc>
    <defs></defs>
    <g id="Page-1" stroke="none" stroke-width="1" fill="none" fill-rule="evenodd">
        <g id="我的衣橱" transform="translate(-459.000000, -189.000000)">
            <g id="Group-7" transform="translate(454.000000, 184.000000)">
                <g id="Group-5" transform="translate(5.000000, 5.000000)">
                    <circle id="Oval-8-Copy" fill="#F0F0F2" cx="125" cy="125" r="124.090909"></circle>
                    <g id="Group-10" transform="translate(1.886535, 36.363636)">
                        <path d="M0.0358548044,104.568831 C7.85538913,165.577501 59.9782176,212.727273 123.113465,212.727273 C130.073078,212.727273 136.898874,212.154337 143.546261,211.053058 L200.295284,155.546729 L132.43411,173.75 C132.43411,173.75 55.5940293,156.727273 55.5940293,155.25 C55.5940293,153.772727 63.3634655,121.636364 63.3634655,121.636364 L82.3634655,101.136364 L129.486277,93.0681818 L147.215924,75.7267794 L99.6961436,7.09090909 L0.0358548044,104.568831 Z" id="Combined-Shape" fill="#E0E0E0"></path>
                        <path d="M125.477102,79.7727273 C151.181647,79.7727273 159.749829,59.7997954 159.749829,38.727554 C159.749829,17.6553127 149.999829,0.572885967 125.477102,0.572885967 C100.954375,0.572885967 91.2043746,17.6553127 91.2043746,38.727554 C91.2043746,59.7997954 99.7725564,79.7727273 125.477102,79.7727273 Z" id="Oval" stroke="#C6C9CE" stroke-width="6" fill="#FBFDFC"></path>
                        <path d="M92.0918923,33.3863636 L110.418449,33.3863636 C110.418449,33.3863636 109.228256,75.3409091 124.590738,75.3409091 C139.95322,75.3409091 118.090738,80.3636364 118.090738,80.3636364 C118.090738,80.3636364 97.4077659,75.6363636 94.7498291,55.8409091 C92.0918923,36.0454545 90.9100741,33.3863636 92.0918923,33.3863636 Z" id="Path-25" fill="#EAEDF2" style="mix-blend-mode: multiply;"></path>
                        <path d="M125.477102,79.7727273 C151.181647,79.7727273 159.749829,59.7997954 159.749829,38.727554 C159.749829,17.6553127 149.999829,0.572885967 125.477102,0.572885967 C100.954375,0.572885967 91.2043746,17.6553127 91.2043746,38.727554 C91.2043746,59.7997954 99.7725564,79.7727273 125.477102,79.7727273 Z" id="Oval" stroke="#C6C9CE" stroke-width="6"></path>
                        <path d="M84.1134655,33.7648002 C84.1134655,33.7648002 98.1475564,33.7648002 116.465738,33.7648002 C134.78392,33.7648002 141.64414,19.0590041 141.64414,19.0590041 C141.64414,19.0590041 141.00473,34.4171146 168.022556,34.4171146" id="Path-23" stroke="#C6C9CE" stroke-width="6" stroke-linecap="round" stroke-linejoin="round"></path>
                        <path d="M53.3861928,153.357639 C53.3861928,153.357639 59.6095592,87.1818182 126.111512,87.1818182 C192.613465,87.1818182 197.568011,153.357639 197.568011,153.357639 L126.36462,174.045455 L53.3861928,153.357639 Z" id="Rectangle-26" stroke="#C6C9CE" stroke-width="6" fill="#FBFDFC"></path>
                        <path d="M125.755536,88 C114.969437,88 106.390887,91.1523427 106.390887,106.565385 L106.390887,167.199841 L53.1124889,154.635387 L56.351643,140.312652 C60.7764504,120.747253 79.0723405,97.9510273 97.2158257,89.3962485 L100.177073,88 L125.755536,88 Z" id="Path-26" fill="#E6EBEF"></path>
                        <path d="M53.3861928,153.357639 C53.3861928,153.357639 59.6095592,87.1818182 126.111512,87.1818182 C192.613465,87.1818182 197.568011,153.357639 197.568011,153.357639 L126.36462,174.045455 L53.3861928,153.357639 Z" id="Rectangle-26" stroke="#C6C9CE" stroke-width="6"></path>
                        <rect id="Rectangle-27" fill="#C6C9CE" transform="translate(86.406621, 142.860349) rotate(-7.000000) translate(-86.406621, -142.860349) " x="83.4066215" y="123.860349" width="6" height="38"></rect>
                        <rect id="Rectangle-27-Copy" fill="#C6C9CE" transform="translate(162.729400, 142.860349) scale(-1, 1) rotate(-7.000000) translate(-162.729400, -142.860349) " x="159.7294" y="123.860349" width="6" height="38"></rect>
                    </g>
                </g>
            </g>
        </g>
    </g>
</svg>