<?xml version="1.0" encoding="UTF-8" standalone="no"?>
<svg width="26px" height="26px" viewBox="0 0 26 26" version="1.1" xmlns="http://www.w3.org/2000/svg" xmlns:xlink="http://www.w3.org/1999/xlink">
    <!-- Generator: Sketch 39.1 (31720) - http://www.bohemiancoding.com/sketch -->
    <title>Group 8</title>
    <desc>Created with Sketch.</desc>
    <defs></defs>
    <g id="Page-1" stroke="none" stroke-width="1" fill="none" fill-rule="evenodd">
        <g id="管理地址" transform="translate(-191.000000, -579.000000)" stroke-width="2" stroke="#FF9241">
            <g id="Group-4" transform="translate(-1.000000, 128.000000)">
                <g id="表单">
                    <g id="件数按钮" transform="translate(50.000000, 251.000000)">
                        <g id="Group-2">
                            <g id="Group-8" transform="translate(143.000000, 201.000000)">
                                <path d="M21,8 L21,16.6177662 C21,20.6948614 18.5911173,24 15.5994065,24 L8.40059352,24 C5.41792808,24 3,20.6994894 3,16.6177662 L3,8 L3,8" id="Rectangle-455"></path>
                                <path d="M6,5.990237 L6,4.009763 L6,4.009763 C6,1.79523205 7.79652125,0 9.99582624,0 L14.0041738,0 C16.2110077,0 18,1.7877996 18,4.009763 L18,5.990237" id="Rectangle-455"></path>
                                <path d="M0.5,5 L23.5,5" id="Line" stroke-linecap="round"></path>
                                <path d="M9,10 L9,20" id="Line" stroke-linecap="round"></path>
                                <path d="M15,10 L15,20" id="Line" stroke-linecap="round"></path>
                            </g>
                        </g>
                    </g>
                </g>
            </g>
        </g>
    </g>
</svg>