<?xml version="1.0" encoding="UTF-8" standalone="no"?>
<svg width="47px" height="40px" viewBox="0 0 47 40" version="1.1" xmlns="http://www.w3.org/2000/svg" xmlns:xlink="http://www.w3.org/1999/xlink">
    <!-- Generator: Sketch 39.1 (31720) - http://www.bohemiancoding.com/sketch -->
    <title>fc</title>
    <desc>Created with Sketch.</desc>
    <defs></defs>
    <g id="Page-1" stroke="none" stroke-width="1" fill="none" fill-rule="evenodd">
        <g id="品牌主页" transform="translate(-248.000000, -4185.000000)" stroke="#979797" stroke-width="1.6">
            <g id="底部菜单" transform="translate(0.000000, 4158.000000)">
                <g id="Club" transform="translate(229.000000, 28.000000)">
                    <g id="fc" transform="translate(20.000000, 0.000000)">
                        <path d="M14.380369,17.4166667 C17.516111,17.4166667 20.2266416,13.3933919 20.7137023,8.70833333 C21.2007631,4.02327474 19.0062845,-7.78953012e-16 14.380369,0 C9.75445346,7.78952989e-16 7.4845967,3.72755941 8.04703566,8.70833333 C8.60947462,13.6891073 11.244627,17.4166667 14.380369,17.4166667 Z M0.0682482347,27.3045484 C-0.334668846,24.6855874 1.31187277,21.7127703 3.75420071,20.6610017 L11.2879211,17.4166667 L17.3626484,17.4166667 L25.0000417,20.6756012 C27.4422415,21.7177066 29.0954639,24.6852165 28.6924897,27.3045484 L28.630369,27.7083333 L0.13036899,27.7083333 L0.0682482347,27.3045484 Z" id="Combined-Shape"></path>
                        <path d="M30.380369,27.4166667 C33.516111,27.4166667 36.2266416,23.3933919 36.7137023,18.7083333 C37.2007631,14.0232747 35.0062845,10 30.380369,10 C25.7544535,10 23.4845967,13.7275594 24.0470357,18.7083333 C24.6094746,23.6891073 27.244627,27.4166667 30.380369,27.4166667 Z M16.0682482,37.3045484 C15.6653312,34.6855874 17.3118728,31.7127703 19.7542007,30.6610017 L27.2879211,27.4166667 L33.3626484,27.4166667 L41.0000417,30.6756012 C43.4422415,31.7177066 45.0954639,34.6852165 44.6924897,37.3045484 L44.630369,37.7083333 L16.130369,37.7083333 L16.0682482,37.3045484 Z" id="Combined-Shape"></path>
                    </g>
                </g>
            </g>
        </g>
    </g>
</svg>