<?xml version="1.0" encoding="UTF-8" standalone="no"?>
<svg width="70px" height="48px" viewBox="0 0 70 48" version="1.1" xmlns="http://www.w3.org/2000/svg" xmlns:xlink="http://www.w3.org/1999/xlink">
    <!-- Generator: Sketch 39.1 (31720) - http://www.bohemiancoding.com/sketch -->
    <title>Group</title>
    <desc>Created with Sketch.</desc>
    <defs></defs>
    <g id="Page-1" stroke="none" stroke-width="1" fill="none" fill-rule="evenodd">
        <g id="快速登录" transform="translate(-71.000000, -613.000000)">
            <g id="Group" transform="translate(71.000000, 613.000000)">
                <rect id="Rectangle-486" fill="#ED5565" x="0" y="0" width="70" height="48" rx="8"></rect>
                <polygon id="Star-1" fill="#F6BB42" points="14 19 9.29771798 21.472136 10.1957739 16.236068 6.39154787 12.527864 11.648859 11.763932 14 7 16.351141 11.763932 21.6084521 12.527864 17.8042261 16.236068 18.702282 21.472136"></polygon>
                <polygon id="Star-1" fill="#F6BB42" points="27 8.5 25.2366442 9.42705098 25.5734152 7.46352549 24.1468305 6.07294902 26.1183221 5.78647451 27 4 27.8816779 5.78647451 29.8531695 6.07294902 28.4265848 7.46352549 28.7633558 9.42705098"></polygon>
                <polygon id="Star-1" fill="#F6BB42" points="30 16.5 28.2366442 17.427051 28.5734152 15.4635255 27.1468305 14.072949 29.1183221 13.7864745 30 12 30.8816779 13.7864745 32.8531695 14.072949 31.4265848 15.4635255 31.7633558 17.427051"></polygon>
                <polygon id="Star-1" fill="#F6BB42" points="27 24.5 25.2366442 25.427051 25.5734152 23.4635255 24.1468305 22.072949 26.1183221 21.7864745 27 20 27.8816779 21.7864745 29.8531695 22.072949 28.4265848 23.4635255 28.7633558 25.427051"></polygon>
                <polygon id="Star-1" fill="#F6BB42" points="19 28.5 17.2366442 29.427051 17.5734152 27.4635255 16.1468305 26.072949 18.1183221 25.7864745 19 24 19.8816779 25.7864745 21.8531695 26.072949 20.4265848 27.4635255 20.7633558 29.427051"></polygon>
            </g>
        </g>
    </g>
</svg>