<?xml version="1.0" encoding="UTF-8"?>
<svg width="612px" height="1119px" viewBox="0 0 612 1119" version="1.1" xmlns="http://www.w3.org/2000/svg" xmlns:xlink="http://www.w3.org/1999/xlink">
    <!-- Generator: Sketch 42 (36781) - http://www.bohemiancoding.com/sketch -->
    <title>Group 2</title>
    <desc>Created with Sketch.</desc>
    <defs>
        <rect id="path-1" x="0.379151251" y="3.41060513e-13" width="610.72296" height="1118.4"></rect>
        <mask id="mask-2" maskContentUnits="userSpaceOnUse" maskUnits="objectBoundingBox" x="0" y="0" width="610.72296" height="1118.4" fill="white">
            <use xlink:href="#path-1"></use>
        </mask>
    </defs>
    <g id="Page-1" stroke="none" stroke-width="1" fill="none" fill-rule="evenodd">
        <g id="收费详情－UCC价格表" transform="translate(-52.000000, -297.000000)">
            <g id="Group-2" transform="translate(52.120000, 297.600000)">
                <use id="Rectangle-32" stroke="#ECC17D" mask="url(#mask-2)" stroke-width="1.92" fill="#FFFFFF" xlink:href="#path-1"></use>
                <g id="Group" transform="translate(0.379151, 112.320000)" stroke="#D1C8C0" stroke-width="0.96" stroke-linecap="square" stroke-dasharray="3.840000152587891">
                    <path d="M610.72296,0.96 L0,0.96" id="Line-Copy"></path>
                    <path d="M610.72296,200.64 L0,200.64" id="Line-Copy-5"></path>
                    <path d="M610.72296,50.88 L0,50.88" id="Line-Copy-2"></path>
                    <path d="M610.72296,100.8 L0,100.8" id="Line-Copy-3"></path>
                    <path d="M610.72296,150.72 L0,150.72" id="Line-Copy-4"></path>
                    <path d="M610.72296,248.64 L0,248.64" id="Line-Copy-9"></path>
                    <path d="M610.72296,296.64 L0,296.64" id="Line-Copy-9"></path>
                    <path d="M610.72296,344.64 L0,344.64" id="Line-Copy-9"></path>
                    <path d="M610.72296,392.64 L0,392.64" id="Line-Copy-9"></path>
                    <path d="M610.72296,440.64 L0,440.64" id="Line-Copy-9"></path>
                    <path d="M610.72296,488.64 L0,488.64" id="Line-Copy-9"></path>
                    <path d="M610.72296,536.64 L0,536.64" id="Line-Copy"></path>
                    <path d="M610.72296,738.24 L0,738.24" id="Line-Copy-5"></path>
                    <path d="M610.72296,586.56 L0,586.56" id="Line-Copy-2"></path>
                    <path d="M610.72296,637.44 L0,637.44" id="Line-Copy-3"></path>
                    <path d="M610.72296,688.32 L0,688.32" id="Line-Copy-4"></path>
                    <path d="M610.72296,787.2 L0,787.2" id="Line-Copy-9"></path>
                    <path d="M610.72296,835.2 L0,835.2" id="Line-Copy-9"></path>
                    <path d="M610.72296,884.16 L0,884.16" id="Line-Copy-9"></path>
                    <path d="M610.72296,934.08 L0,934.08" id="Line-Copy-9"></path>
                </g>
                <text id="西装-西裤-衬衫-T恤-休闲裤-羊毛衫" font-family="PingFangSC-Medium, PingFang SC" font-size="23.04" font-weight="400" line-spacing="24.5760004" letter-spacing="0.620307636" fill="#B38B57">
                    <tspan x="179.260616" y="99.82592">西装</tspan>
                    <tspan x="204.579804" y="125.76"></tspan>
                    <tspan x="179.260616" y="148.977921">西裤</tspan>
                    <tspan x="204.579804" y="174.912001"></tspan>
                    <tspan x="179.260616" y="198.129921">衬衫</tspan>
                    <tspan x="204.579804" y="224.064001"></tspan>
                    <tspan x="183.684296" y="247.281922">T恤</tspan>
                    <tspan x="204.579804" y="273.216002"></tspan>
                    <tspan x="167.430463" y="296.433923">休闲裤</tspan>
                    <tspan x="204.579804" y="322.368003"></tspan>
                    <tspan x="167.430463" y="345.585924">羊毛衫</tspan>
                    <tspan x="204.579804" y="371.520004"></tspan>
                    <tspan x="167.430463" y="394.737924">针织衫</tspan>
                    <tspan x="204.579804" y="420.672004"></tspan>
                    <tspan x="167.430463" y="443.889925">夹克衫</tspan>
                    <tspan x="204.579804" y="469.824005"></tspan>
                    <tspan x="167.430463" y="493.041926">牛仔衣</tspan>
                    <tspan x="204.579804" y="518.976006"></tspan>
                    <tspan x="179.260616" y="542.193927">棉衣</tspan>
                    <tspan x="204.579804" y="568.128007"></tspan>
                    <tspan x="179.260616" y="591.345927">风衣</tspan>
                    <tspan x="204.579804" y="617.280007"></tspan>
                    <tspan x="179.260616" y="640.497928">短裙</tspan>
                    <tspan x="204.579804" y="666.432008"></tspan>
                    <tspan x="167.430463" y="689.649929">连衣裙</tspan>
                    <tspan x="204.579804" y="715.584009"></tspan>
                    <tspan x="143.770155" y="738.80193">羊毛连衣裙</tspan>
                    <tspan x="204.579804" y="764.73601"></tspan>
                    <tspan x="92.303226" y="787.95393">羽绒服(短／中／长）</tspan>
                    <tspan x="204.579804" y="813.88801"></tspan>
                    <tspan x="72.7892321" y="837.105931">毛呢大衣（短／中／长）</tspan>
                    <tspan x="204.579804" y="863.040011"></tspan>
                    <tspan x="162.731189" y="886.257932">PU外套</tspan>
                    <tspan x="204.579804" y="912.192012"></tspan>
                    <tspan x="179.260616" y="935.409932">礼服</tspan>
                    <tspan x="204.579804" y="961.344012"></tspan>
                    <tspan x="179.260616" y="984.561933">婚纱</tspan>
                    <tspan x="204.579804" y="1010.49601"></tspan>
                    <tspan x="167.430463" y="1033.71393">运动鞋</tspan>
                    <tspan x="204.579804" y="1059.64801"></tspan>
                    <tspan x="179.260616" y="1082.86593">领带</tspan>
                </text>
                <text id="28-20-20-20-20-35-40" font-family="PingFangSC-Regular, PingFang SC" font-size="23.04" font-weight="normal" line-spacing="24.5760004" letter-spacing="0.620307636" fill="#B38B57">
                    <tspan x="489.178363" y="100.8">28</tspan>
                    <tspan x="505.281551" y="126.73408"></tspan>
                    <tspan x="489.178363" y="149.952001">20</tspan>
                    <tspan x="505.281551" y="175.886081"></tspan>
                    <tspan x="489.178363" y="199.104001">20</tspan>
                    <tspan x="505.281551" y="225.038081"></tspan>
                    <tspan x="489.178363" y="248.256002">20</tspan>
                    <tspan x="505.281551" y="274.190082"></tspan>
                    <tspan x="489.178363" y="297.408003">20</tspan>
                    <tspan x="505.281551" y="323.342083"></tspan>
                    <tspan x="489.178363" y="346.560004">35</tspan>
                    <tspan x="505.281551" y="372.494084"></tspan>
                    <tspan x="489.178363" y="395.712004">40</tspan>
                    <tspan x="505.281551" y="421.646084"></tspan>
                    <tspan x="489.178363" y="444.864005">35</tspan>
                    <tspan x="505.281551" y="470.798085"></tspan>
                    <tspan x="489.178363" y="494.016006">40</tspan>
                    <tspan x="505.281551" y="519.950086"></tspan>
                    <tspan x="489.178363" y="543.168007">50</tspan>
                    <tspan x="505.281551" y="569.102087"></tspan>
                    <tspan x="489.178363" y="592.320007">50</tspan>
                    <tspan x="505.281551" y="618.254087"></tspan>
                    <tspan x="489.178363" y="641.472008">30</tspan>
                    <tspan x="505.281551" y="667.406088"></tspan>
                    <tspan x="489.178363" y="690.624009">35</tspan>
                    <tspan x="505.281551" y="716.558089"></tspan>
                    <tspan x="489.178363" y="739.77601">40</tspan>
                    <tspan x="505.281551" y="765.71009"></tspan>
                    <tspan x="448.76" y="788.92801">50/60/70</tspan>
                    <tspan x="505.281551" y="814.86209"></tspan>
                    <tspan x="448.76" y="838.080011">50/60/70</tspan>
                    <tspan x="505.281551" y="864.014091"></tspan>
                    <tspan x="468.663901" y="887.232012">55/60</tspan>
                    <tspan x="505.281551" y="913.166092"></tspan>
                    <tspan x="484.248689" y="936.384012">120</tspan>
                    <tspan x="505.281551" y="962.318092"></tspan>
                    <tspan x="484.248689" y="985.536013">150</tspan>
                    <tspan x="505.281551" y="1011.47009"></tspan>
                    <tspan x="489.178363" y="1034.68801">40</tspan>
                    <tspan x="505.281551" y="1060.62209"></tspan>
                    <tspan x="489.178363" y="1083.84001">20</tspan>
                </text>
                <path d="M401.684222,57.6 L401.684222,1113.6" id="Line-Copy" stroke="#D1C8C0" stroke-width="0.96" stroke-linecap="square" stroke-dasharray="3.840000152587891"></path>
                <rect id="Rectangle-32-Copy" fill="#B38B57" x="0.68" y="3.41060513e-13" width="610.72296" height="57.6"></rect>
                <rect id="Rectangle-32-Copy-2" fill="#B38B57" x="0.68" y="1099.2" width="610.72296" height="19.2"></rect>
                <text id="服务项目" font-family="PingFangSC-Regular, PingFang SC" font-size="24.96" font-weight="normal" letter-spacing="0.671999979" fill="#FFFFFF">
                    <tspan x="149.641201" y="35.6">服务项目</tspan>
                </text>
                <text id="单价(¥)" font-family="PingFangSC-Regular, PingFang SC" font-size="24.96" font-weight="normal" letter-spacing="0.671999979" fill="#FFFFFF">
                    <tspan x="466.045325" y="35.6">单价(¥)</tspan>
                </text>
            </g>
        </g>
    </g>
</svg>