<?xml version="1.0" encoding="UTF-8"?>
<svg width="54px" height="54px" viewBox="0 0 54 54" version="1.1" xmlns="http://www.w3.org/2000/svg" xmlns:xlink="http://www.w3.org/1999/xlink">
    <!-- Generator: Sketch 42 (36781) - http://www.bohemiancoding.com/sketch -->
    <title>Group 26</title>
    <desc>Created with Sketch.</desc>
    <defs>
        <rect id="path-1" x="0" y="0" width="54" height="54" rx="8"></rect>
        <mask id="mask-2" maskContentUnits="userSpaceOnUse" maskUnits="objectBoundingBox" x="0" y="0" width="54" height="54" fill="white">
            <use xlink:href="#path-1"></use>
        </mask>
    </defs>
    <g id="Page-1" stroke="none" stroke-width="1" fill="none" fill-rule="evenodd">
        <g id="预约入库" transform="translate(-390.000000, -1203.000000)">
            <g id="Group-6" transform="translate(6.000000, 793.000000)">
                <g id="存衣数量">
                    <g id="Group-8" transform="translate(20.000000, 350.000000)">
                        <g id="Group-20" transform="translate(19.000000, 60.000000)">
                            <g id="Group-12" transform="translate(345.000000, 0.000000)">
                                <g id="Group-19">
                                    <g id="Group-26">
                                        <use id="Rectangle-6" stroke="#FC9421" mask="url(#mask-2)" stroke-width="3.2" fill="#F0F0F2" xlink:href="#path-1"></use>
                                        <g id="Group-24" transform="translate(6.000000, 10.000000)" stroke-width="1.536" stroke="#979797">
                                            <g id="Group-23">
                                                <path d="M3.94000082,21.3399794 C10.564874,17.3266893 20.3803916,12.2263514 20.3803916,12.2263514 C20.3803916,12.2263514 33.6039589,18.9121418 38.0365603,21.3399794 C42.4691616,23.767817 40.8278945,27.125 40.8278945,27.125 L1.17661121,27.125 C1.17661121,27.125 -0.472119362,24.0128031 3.94000082,21.3399794 Z" id="Triangle-1" fill="#FFFFFF"></path>
                                                <path d="M24.4698276,4.42560215 C24.4698276,2.46465873 22.9163329,0.875 21,0.875 C19.0836671,0.875 17.5301724,2.46465873 17.5301724,4.42560215 C17.5301724,6.38654557 19.0836671,7.9762043 21,7.9762043 L21,12.2263514" id="Oval-111"></path>
                                            </g>
                                        </g>
                                    </g>
                                </g>
                            </g>
                        </g>
                    </g>
                </g>
            </g>
        </g>
    </g>
</svg>