<?xml version="1.0" encoding="UTF-8"?>
<svg width="665px" height="1265px" viewBox="0 0 665 1265" version="1.1" xmlns="http://www.w3.org/2000/svg" xmlns:xlink="http://www.w3.org/1999/xlink">
    <!-- Generator: Sketch 42 (36781) - http://www.bohemiancoding.com/sketch -->
    <title>Group 2</title>
    <desc>Created with Sketch.</desc>
    <defs>
        <rect id="path-1" x="0.112230008" y="1.8189894e-13" width="663.12175" height="1254.72"></rect>
        <mask id="mask-2" maskContentUnits="userSpaceOnUse" maskUnits="objectBoundingBox" x="0" y="0" width="663.12175" height="1254.72" fill="white">
            <use xlink:href="#path-1"></use>
        </mask>
    </defs>
    <g id="Page-1" stroke="none" stroke-width="1" fill="none" fill-rule="evenodd">
        <g id="收费详情－嘉里酒店价格表" transform="translate(-28.000000, -368.000000)">
            <g id="Group-2" transform="translate(28.800000, 368.640000)">
                <use id="Rectangle-32" stroke="#ECC17D" mask="url(#mask-2)" stroke-width="1.92" fill="#FFFFFF" xlink:href="#path-1"></use>
                <g id="Group" transform="translate(146.916923, 112.320000)" stroke="#D1C8C0" stroke-width="0.96" stroke-linecap="square" stroke-dasharray="3.840000152587891">
                    <path d="M516.383758,0.96 L0,0.96" id="Line-Copy"></path>
                    <path d="M516.383758,200.64 L0,200.64" id="Line-Copy-5"></path>
                    <path d="M516.383758,50.88 L0,50.88" id="Line-Copy-2"></path>
                    <path d="M516.383758,100.8 L0,100.8" id="Line-Copy-3"></path>
                    <path d="M516.383758,150.72 L0,150.72" id="Line-Copy-4"></path>
                    <path d="M516.383758,248.64 L0,248.64" id="Line-Copy-9"></path>
                    <path d="M516.383758,296.64 L0,296.64" id="Line-Copy-9"></path>
                    <path d="M516.383758,344.64 L0,344.64" id="Line-Copy-9"></path>
                    <path d="M516.383758,392.64 L0,392.64" id="Line-Copy-9"></path>
                    <path d="M516.383758,440.64 L0,440.64" id="Line-Copy-9"></path>
                    <path d="M516.383758,488.64 L0,488.64" id="Line-Copy-9"></path>
                    <path d="M516.383758,536.64 L0,536.64" id="Line-Copy"></path>
                    <path d="M516.383758,738.24 L0,738.24" id="Line-Copy-5"></path>
                    <path d="M516.383758,586.56 L0,586.56" id="Line-Copy-2"></path>
                    <path d="M516.383758,637.44 L0,637.44" id="Line-Copy-3"></path>
                    <path d="M516.383758,688.32 L0,688.32" id="Line-Copy-4"></path>
                    <path d="M516.383758,787.2 L0,787.2" id="Line-Copy-9"></path>
                    <path d="M396.283077,834.08 L0,834.08" id="Line-Copy-9"></path>
                    <path d="M396.283077,883.68 L0,883.68" id="Line-Copy-9"></path>
                    <path d="M396.283077,933.28 L0,933.28" id="Line-Copy-9"></path>
                    <path d="M396.283077,979.68 L0,979.68" id="Line-Copy-9"></path>
                    <path d="M396.283077,1028.48 L0,1028.48" id="Line-Copy-9"></path>
                    <path d="M396.283077,1078.08 L0,1078.08" id="Line-Copy-9"></path>
                </g>
                <g id="Group-3" transform="translate(0.000000, 308.160000)" stroke="#D1C8C0" stroke-width="0.96" stroke-linecap="square" stroke-dasharray="3.840000152587891">
                    <path d="M146.886546,4.43428571 L0,4.43428571" id="Line-Copy-9"></path>
                    <path d="M146.886546,591.542857 L0,591.542857" id="Line-Copy-9"></path>
                </g>
                <text id="衬衫-牛仔裤／休闲裤-短棉服-T恤-短羽" font-family="PingFangSC-Medium, PingFang SC" font-size="23.04" font-weight="400" line-spacing="24.5760004" letter-spacing="0.620307636" fill="#B38B57">
                    <tspan x="168.817582" y="100.8">衬衫</tspan>
                    <tspan x="170.476462" y="126.73408"></tspan>
                    <tspan x="168.817582" y="149.952001">牛仔裤／休闲裤</tspan>
                    <tspan x="170.476462" y="175.886081"></tspan>
                    <tspan x="168.817582" y="199.104001">短棉服</tspan>
                    <tspan x="170.476462" y="225.038081"></tspan>
                    <tspan x="168.817582" y="248.256002">T恤</tspan>
                    <tspan x="170.476462" y="274.190082"></tspan>
                    <tspan x="168.817582" y="297.408003">短羽绒服</tspan>
                    <tspan x="170.476462" y="323.342083"></tspan>
                    <tspan x="168.817582" y="346.560004">西装套装</tspan>
                    <tspan x="170.476462" y="372.494084"></tspan>
                    <tspan x="168.817582" y="395.712004">短外套</tspan>
                    <tspan x="170.476462" y="421.646084"></tspan>
                    <tspan x="168.817582" y="444.864005">短大衣</tspan>
                    <tspan x="170.476462" y="470.798085"></tspan>
                    <tspan x="168.817582" y="494.016006">西裤</tspan>
                    <tspan x="170.476462" y="519.950086"></tspan>
                    <tspan x="168.817582" y="543.168007">领带</tspan>
                    <tspan x="170.476462" y="569.102087"></tspan>
                    <tspan x="168.817582" y="592.320007">羊毛衫</tspan>
                    <tspan x="170.476462" y="618.254087"></tspan>
                    <tspan x="168.817582" y="641.472008">衬衫</tspan>
                    <tspan x="170.476462" y="667.406088"></tspan>
                    <tspan x="168.817582" y="690.624009">羊绒短大衣</tspan>
                    <tspan x="170.476462" y="716.558089"></tspan>
                    <tspan x="168.817582" y="739.77601">风衣</tspan>
                    <tspan x="170.476462" y="765.71009"></tspan>
                    <tspan x="168.817582" y="788.92801">羊毛外套</tspan>
                    <tspan x="170.476462" y="814.86209"></tspan>
                    <tspan x="168.817582" y="838.080011">连衣裙</tspan>
                    <tspan x="170.476462" y="864.014091"></tspan>
                    <tspan x="168.817582" y="887.232012">短裙</tspan>
                    <tspan x="170.476462" y="913.166092"></tspan>
                    <tspan x="168.817582" y="936.384012">短外套</tspan>
                    <tspan x="170.476462" y="962.318092"></tspan>
                    <tspan x="168.817582" y="985.536013">连衣裙</tspan>
                    <tspan x="170.476462" y="1011.47009"></tspan>
                    <tspan x="168.817582" y="1034.68801">衬衫</tspan>
                    <tspan x="170.476462" y="1060.62209"></tspan>
                    <tspan x="168.817582" y="1083.84001">西裤</tspan>
                    <tspan x="170.476462" y="1109.77409"></tspan>
                    <tspan x="168.817582" y="1132.99202">大衣／风衣</tspan>
                    <tspan x="170.476462" y="1158.9261"></tspan>
                    <tspan x="168.817582" y="1182.14402">T恤</tspan>
                    <tspan x="170.476462" y="1208.0781"></tspan>
                    <tspan x="168.817582" y="1231.29602">短裙</tspan>
                </text>
                <text id="水洗" font-family="PingFangSC-Medium, PingFang SC" font-size="23.04" font-weight="400" line-spacing="24.5760004" letter-spacing="0.620307636" fill="#B38B57">
                    <tspan x="49.3515918" y="198.32192">水洗</tspan>
                    <tspan x="74.6707794" y="224.256"></tspan>
                    <tspan x="74.6707794" y="248.832001"></tspan>
                </text>
                <text id="干洗" font-family="PingFangSC-Medium, PingFang SC" font-size="23.04" font-weight="400" line-spacing="24.5760004" letter-spacing="0.620307636" fill="#B38B57">
                    <tspan x="49.3515918" y="608.24192">干洗</tspan>
                    <tspan x="74.6707794" y="634.176"></tspan>
                    <tspan x="74.6707794" y="658.752001"></tspan>
                </text>
                <text id="精洗" font-family="PingFangSC-Medium, PingFang SC" font-size="23.04" font-weight="400" line-spacing="24.5760004" letter-spacing="0.620307636" fill="#B38B57">
                    <tspan x="49.3515918" y="1083.44192">精洗</tspan>
                    <tspan x="74.6707794" y="1109.376"></tspan>
                    <tspan x="74.6707794" y="1133.952"></tspan>
                </text>
                <text id="20-20-40-15-45-40-19" font-family="PingFangSC-Regular, PingFang SC" font-size="23.04" font-weight="normal" line-spacing="24.5760004" letter-spacing="0.620307636" fill="#B38B57">
                    <tspan x="589.280554" y="99.4419204">20</tspan>
                    <tspan x="605.383741" y="125.376"></tspan>
                    <tspan x="589.280554" y="148.593921">20</tspan>
                    <tspan x="605.383741" y="174.528001"></tspan>
                    <tspan x="589.280554" y="197.745922">40</tspan>
                    <tspan x="605.383741" y="223.680002"></tspan>
                    <tspan x="591.573034" y="246.897923">15</tspan>
                    <tspan x="605.383741" y="272.832003"></tspan>
                    <tspan x="589.280554" y="296.049923">45</tspan>
                    <tspan x="605.383741" y="321.984003"></tspan>
                    <tspan x="589.280554" y="345.201924">40</tspan>
                    <tspan x="605.383741" y="371.136004"></tspan>
                    <tspan x="591.573034" y="394.353925">19</tspan>
                    <tspan x="605.383741" y="420.288005"></tspan>
                    <tspan x="589.280554" y="443.505925">40</tspan>
                    <tspan x="605.383741" y="469.440005"></tspan>
                    <tspan x="589.280554" y="492.657926">20</tspan>
                    <tspan x="605.383741" y="518.592006"></tspan>
                    <tspan x="591.573034" y="541.809927">10</tspan>
                    <tspan x="605.383741" y="567.744007"></tspan>
                    <tspan x="591.573034" y="590.961928">15</tspan>
                    <tspan x="605.383741" y="616.896008"></tspan>
                    <tspan x="589.280554" y="640.113928">20</tspan>
                    <tspan x="605.383741" y="666.048008"></tspan>
                    <tspan x="589.280554" y="689.265929">40</tspan>
                    <tspan x="605.383741" y="715.200009"></tspan>
                    <tspan x="589.280554" y="738.41793">40</tspan>
                    <tspan x="605.383741" y="764.35201"></tspan>
                    <tspan x="589.280554" y="787.569931">40</tspan>
                    <tspan x="605.383741" y="813.504011"></tspan>
                    <tspan x="589.280554" y="836.721931">25</tspan>
                    <tspan x="605.383741" y="862.656011"></tspan>
                    <tspan x="591.573034" y="885.873932">15</tspan>
                    <tspan x="605.383741" y="911.808012"></tspan>
                </text>
                <text id="30-35-80-30-100-80-4" font-family="PingFangSC-Regular, PingFang SC" font-size="23.04" font-weight="normal" line-spacing="24.5760004" letter-spacing="0.620307636" fill="#B38B57">
                    <tspan x="462.41462" y="99.4419204">30</tspan>
                    <tspan x="478.517807" y="125.376"></tspan>
                    <tspan x="462.41462" y="148.593921">35</tspan>
                    <tspan x="478.517807" y="174.528001"></tspan>
                    <tspan x="462.41462" y="197.745922">80</tspan>
                    <tspan x="478.517807" y="223.680002"></tspan>
                    <tspan x="462.41462" y="246.897923">30</tspan>
                    <tspan x="478.517807" y="272.832003"></tspan>
                    <tspan x="457.484946" y="296.049923">100</tspan>
                    <tspan x="478.517807" y="321.984003"></tspan>
                    <tspan x="462.41462" y="345.201924">80</tspan>
                    <tspan x="478.517807" y="371.136004"></tspan>
                    <tspan x="462.41462" y="394.353925">45</tspan>
                    <tspan x="478.517807" y="420.288005"></tspan>
                    <tspan x="462.41462" y="443.505925">80</tspan>
                    <tspan x="478.517807" y="469.440005"></tspan>
                    <tspan x="462.41462" y="492.657926">38</tspan>
                    <tspan x="478.517807" y="518.592006"></tspan>
                    <tspan x="462.41462" y="541.809927">25</tspan>
                    <tspan x="478.517807" y="567.744007"></tspan>
                    <tspan x="462.41462" y="590.961928">35</tspan>
                    <tspan x="478.517807" y="616.896008"></tspan>
                    <tspan x="462.41462" y="640.113928">35</tspan>
                    <tspan x="478.517807" y="666.048008"></tspan>
                    <tspan x="462.41462" y="689.265929">80</tspan>
                    <tspan x="478.517807" y="715.200009"></tspan>
                    <tspan x="462.41462" y="738.41793">90</tspan>
                    <tspan x="478.517807" y="764.35201"></tspan>
                    <tspan x="462.41462" y="787.569931">80</tspan>
                    <tspan x="478.517807" y="813.504011"></tspan>
                    <tspan x="462.41462" y="836.721931">58</tspan>
                    <tspan x="478.517807" y="862.656011"></tspan>
                    <tspan x="462.41462" y="885.873932">35</tspan>
                    <tspan x="478.517807" y="911.808012"></tspan>
                    <tspan x="457.484946" y="935.025933">140</tspan>
                    <tspan x="478.517807" y="960.960013"></tspan>
                    <tspan x="457.484946" y="984.177934">140</tspan>
                    <tspan x="478.517807" y="1010.11201"></tspan>
                    <tspan x="457.484946" y="1033.32993">100</tspan>
                    <tspan x="478.517807" y="1059.26401"></tspan>
                    <tspan x="457.484946" y="1082.48194">100</tspan>
                    <tspan x="478.517807" y="1108.41602"></tspan>
                    <tspan x="457.484946" y="1131.63394">150</tspan>
                    <tspan x="478.517807" y="1157.56802"></tspan>
                    <tspan x="462.41462" y="1180.78594">60</tspan>
                    <tspan x="478.517807" y="1206.72002"></tspan>
                    <tspan x="462.41462" y="1229.93794">60</tspan>
                </text>
                <path d="M419.306374,57.6 L419.306374,1250.88" id="Line-Copy" stroke="#D1C8C0" stroke-width="0.96" stroke-linecap="square" stroke-dasharray="3.840000152587891"></path>
                <path d="M542.506374,57.6 L542.506374,1250.88" id="Line-Copy" stroke="#D1C8C0" stroke-width="0.96" stroke-linecap="square" stroke-dasharray="3.840000152587891"></path>
                <path d="M145.548132,57.6 L145.548132,1250.88" id="Line-Copy" stroke="#D1C8C0" stroke-width="0.96" stroke-linecap="square" stroke-dasharray="3.840000152587891"></path>
                <rect id="Rectangle-32-Copy" fill="#B38B57" x="0.438890969" y="1.8189894e-13" width="663.12175" height="57.6"></rect>
                <rect id="Rectangle-32-Copy-2" fill="#B38B57" x="0.438890969" y="1245.12" width="663.12175" height="19.2"></rect>
                <text id="服务项目" font-family="PingFangSC-Regular, PingFang SC" font-size="24.96" font-weight="normal" letter-spacing="0.671999979" fill="#FFFFFF">
                    <tspan x="168.576" y="35.6">服务项目</tspan>
                </text>
                <text id="类别" font-family="PingFangSC-Regular, PingFang SC" font-size="24.96" font-weight="normal" letter-spacing="0.671999979" fill="#FFFFFF">
                    <tspan x="49.0387795" y="35.6">类别</tspan>
                </text>
                <text id="单价(¥)" font-family="PingFangSC-Regular, PingFang SC" font-size="24.96" font-weight="normal" letter-spacing="0.671999979" fill="#FFFFFF">
                    <tspan x="436.612628" y="35.6">单价(¥)</tspan>
                </text>
                <text id="熨烫(¥)" font-family="PingFangSC-Regular, PingFang SC" font-size="24.96" font-weight="normal" letter-spacing="0.671999979" fill="#FFFFFF">
                    <tspan x="562.566034" y="35.6">熨烫(¥)</tspan>
                </text>
            </g>
        </g>
    </g>
</svg>