<?xml version="1.0" encoding="UTF-8" standalone="no"?>
<svg width="133px" height="60px" viewBox="0 0 133 60" version="1.1" xmlns="http://www.w3.org/2000/svg" xmlns:xlink="http://www.w3.org/1999/xlink">
    <!-- Generator: Sketch 39.1 (31720) - http://www.bohemiancoding.com/sketch -->
    <title>Group 13</title>
    <desc>Created with Sketch.</desc>
    <defs></defs>
    <g id="Page-1" stroke="none" stroke-width="1" fill="none" fill-rule="evenodd">
        <g id="个人中心" transform="translate(-555.000000, -875.000000)" stroke="#979797">
            <g id="Group-13" transform="translate(555.000000, 876.000000)">
                <g id="Group-5" transform="translate(42.000000, 0.000000)" stroke-width="2">
                    <path d="M14.8387632,46.1894953 C15.8867845,46.622662 16.9721762,56.9837429 18.0887583,57.2665581 C19.9797225,57.7455137 21.960142,58 24,58 C25.9006171,58 27.7496334,57.7790704 29.5227687,57.3614915 C30.6166908,57.1038693 31.6817313,46.7713989 32.7121887,46.3697817 C41.6598357,42.8824669 48,34.1816458 48,24 C48,10.745166 37.254834,0 24,0 C10.745166,0 0,10.745166 0,24 C0,34.0104745 6.12877778,42.5894963 14.8387632,46.1894953 Z" id="Oval-317"></path>
                    <path d="M24.5,4.3974359 C13.454305,4.3974359 4.5,13.3279894 4.5,24.3443855" id="Oval-317" stroke-linecap="round"></path>
                    <path d="M23.5,34 C18.2532949,34 14,35.3431458 14,37 C14,38.6568542 18.2532949,40 23.5,40 C28.7467051,40 33,38.6568542 33,37 C33,37 30.2369679,35.7965334 27.6908089,36.9746742 C25.5152613,37.9813284 23.4980469,40.7267292 23.4980469,47.4472656 L23.4980469,57.1230469" id="Oval-318" stroke-linecap="round"></path>
                </g>
                <path d="M0.5,57.5 L131.808792,57.5" id="Line" stroke-linecap="square"></path>
            </g>
        </g>
    </g>
</svg>