<?xml version="1.0" encoding="UTF-8" standalone="no"?>
<svg width="133px" height="61px" viewBox="0 0 133 61" version="1.1" xmlns="http://www.w3.org/2000/svg" xmlns:xlink="http://www.w3.org/1999/xlink">
    <!-- Generator: Sketch 39.1 (31720) - http://www.bohemiancoding.com/sketch -->
    <title>Group 16</title>
    <desc>Created with Sketch.</desc>
    <defs></defs>
    <g id="Page-1" stroke="none" stroke-width="1" fill="none" fill-rule="evenodd">
        <g id="个人中心" transform="translate(-555.000000, -1064.000000)">
            <g id="Group-16" transform="translate(555.000000, 1065.000000)">
                <path d="M62,35.5 C62,39.0898509 64.9101491,42 68.5,42 L68.5,42 C72.0898509,42 75,39.0898509 75,35.5" id="Oval-319" stroke="#979797" stroke-width="2" stroke-linecap="round"></path>
                <path d="M63,28 C64.1045695,28 65,27.1045695 65,26 C65,24.8954305 64.1045695,24 63,24 C61.8954305,24 61,24.8954305 61,26 C61,27.1045695 61.8954305,28 63,28 Z" id="Oval-320" fill="#979797"></path>
                <circle id="Oval-320" fill="#979797" cx="75" cy="26" r="2"></circle>
                <g id="Group-14" stroke="#979797">
                    <g id="Group-5" transform="translate(38.000000, 0.000000)" stroke-width="2">
                        <path d="M7.63636361,43.328125 C9.85286496,44.4562528 5.02973295,47.4618668 2.40956449,51.044653 C-1.44964318,56.3216862 1.84527781,58.0008917 2.40956439,58.1449275 C4.01401879,58.5544693 51.631884,58.5019878 53.1363624,58.1449275 C53.7223287,58.0058592 57.9735509,54.7378179 54.3245726,49.5349156 C50.6755944,44.3320134 45.8869226,43.4547378 46.2092791,43.328125 C53.801222,40.3462181 48.3636364,29.2277841 48.3636364,20.5217391 C48.3636364,9.18789557 39.2465258,0 28,0 C16.7534742,0 7.63636364,9.18789557 7.63636364,20.5217391 C7.63636364,29.0814203 0.44958573,39.6702864 7.63636361,43.328125 Z" id="Oval-317"></path>
                        <path d="M38.4270833,13.6193671 C33.6796461,4.43946913 17.2011719,12.211914 18.9472656,38.1748039 C19.2179445,42.1995618 21.8964844,53.5332049 18.9472656,51.7548846 C15.9980469,49.9765643 13.307704,48.6337696 8.39648438,43.8437517" id="Oval-317" stroke-linecap="round"></path>
                        <path d="M47.0141602,16.0473633 C39.727051,16.0473633 42.9697266,27.8696299 42.3041993,40.4511719 C42.3041993,40.4511719 42.6333009,42.7768555 40.6362306,43.4985352" id="Oval-317" stroke-linecap="round" transform="translate(43.825195, 29.772949) scale(-1, 1) translate(-43.825195, -29.772949) "></path>
                        <path d="M19.3637696,42.3710933 C22.248284,45.6987983 25.1127872,47.0289855 29.5148915,47.0289855 C38.3178321,47.0289855 45.4540255,38.7981624 45.4540255,28.6449275" id="Oval-319"></path>
                    </g>
                    <path d="M0.5,58.5 L131.808792,58.5" id="Line" stroke-linecap="square"></path>
                </g>
            </g>
        </g>
    </g>
</svg>