<?xml version="1.0" encoding="UTF-8"?>
<svg width="40px" height="40px" viewBox="0 0 40 40" version="1.1" xmlns="http://www.w3.org/2000/svg" xmlns:xlink="http://www.w3.org/1999/xlink">
    <!-- Generator: Sketch 40.3 (33839) - http://www.bohemiancoding.com/sketch -->
    <title>user_active</title>
    <desc>Created with Sketch.</desc>
    <defs></defs>
    <g id="Page-1" stroke="none" stroke-width="1" fill="none" fill-rule="evenodd">
        <g id="user" transform="translate(1.000000, 1.000000)" stroke-width="1.6" stroke="#FF9241">
            <g id="Page-1">
                <g id="品牌主页">
                    <g id="底部菜单">
                        <g id="My">
                            <g id="my">
                                <path d="M19.380369,21.4166667 C22.516111,21.4166667 25.2266416,17.3933919 25.7137023,12.7083333 C26.2007631,8.02327474 24.0062845,4 19.380369,4 C14.7544535,4 12.4845967,7.72755941 13.0470357,12.7083333 C13.6094746,17.6891073 16.244627,21.4166667 19.380369,21.4166667 L19.380369,21.4166667 Z M5.06824823,31.3045484 C4.66533115,28.6855874 6.31187277,25.7127703 8.75420071,24.6610017 L16.2879211,21.4166667 L22.3626484,21.4166667 L30.0000417,24.6756012 C32.4422415,25.7177066 34.0954639,28.6852165 33.6924897,31.3045484 L33.630369,31.7083333 L5.13036899,31.7083333 L5.06824823,31.3045484 L5.06824823,31.3045484 Z" id="Combined-Shape"></path>
                                <circle id="Oval-81" cx="19" cy="19" r="19"></circle>
                            </g>
                        </g>
                    </g>
                </g>
            </g>
        </g>
    </g>
</svg>