<?xml version="1.0" standalone="no"?><!DOCTYPE svg PUBLIC "-//W3C//DTD SVG 1.1//EN" "http://www.w3.org/Graphics/SVG/1.1/DTD/svg11.dtd"><svg class="icon" width="200px" height="200.00px" viewBox="0 0 1024 1024" version="1.1" xmlns="http://www.w3.org/2000/svg"><path d="M391.048533 611.5328c-4.010667 1.979733-8.5504 3.072-13.329067 3.072-11.076267 0-20.736-5.888-25.8048-14.523733l-1.962667-4.096-80.725333-169.966933c-0.887467-1.826133-1.4336-3.925333-1.4336-5.973333 0-7.8336 6.621867-14.199467 14.762667-14.199467 3.310933 0 6.382933 1.058133 8.891733 2.816l95.317333 65.0752c6.946133 4.386133 15.274667 6.929067 24.2176 6.929067 5.341867 0 10.427733-0.9216 15.172267-2.577067L874.461867 286.72C794.0608 195.8912 661.76 136.533333 512 136.533333 266.9056 136.533333 68.266667 295.338667 68.266667 491.195733c0 106.8544 59.767467 203.025067 153.309867 268.032 7.4752 5.154133 12.407467 13.585067 12.407467 23.0912 0 3.208533-0.699733 6.075733-1.536 9.079467-7.492267 26.743467-19.456 69.512533-20.0192 71.509333-0.955733 3.345067-2.389333 6.843733-2.389333 10.3424 0 7.867733 6.638933 14.199467 14.779733 14.199467 3.208533 0 5.819733-1.1264 8.5504-2.6112l97.143467-53.794133c7.3216-4.061867 15.018667-6.570667 23.569067-6.570667 4.522667 0 8.891733 0.682667 13.038933 1.8432 45.294933 12.509867 94.225067 19.490133 144.8448 19.490133C757.060267 845.824 955.733333 687.018667 955.733333 491.195733c0-59.374933-18.363733-115.217067-50.568533-164.334933L394.257067 609.757867 391.048533 611.5328z" fill="#00C400" /></svg>